<svg height="512pt" viewBox="0 -30 512.00103 512" width="512pt" xmlns="http://www.w3.org/2000/svg"><path d="m445.832031 270.605469c-3.75 0-6.785156-3.039063-6.785156-6.785157v-160.773437c0-3.75 3.035156-6.785156 6.785156-6.785156 3.746094 0 6.785157 3.035156 6.785157 6.785156v160.773437c0 3.746094-3.039063 6.785157-6.785157 6.785157zm0 0" fill="#fc5f61"/><path d="m399.402344 204.667969v108.15625l-199.621094-.8125-87.171875-.355469v-140.5c0-22.863281 22.121094-39.179688 43.960937-32.445312 12.296876-39.085938 48.335938-63.722657 86.816407-63.722657 10.554687 0 21.277343 1.847657 31.75 5.761719.457031.167969.917969.34375 1.378906.519531l52.707031 20.609375c42.324219 16.546875 70.179688 57.347656 70.179688 102.789063zm0 0" fill="#f7d360"/><path d="m199.375 153.964844c0 36.539062 29.660156 77.167968 29.660156 77.167968l-29.253906 80.878907-87.171875-.355469v-140.5c0-22.863281 22.121094-39.179688 43.960937-32.445312 12.296876-39.085938 48.335938-63.722657 86.816407-63.722657 10.554687 0 21.277343 1.847657 31.75 5.761719-40.046875-14.34375-75.761719 37.09375-75.761719 73.214844zm0 0" fill="#e58e13"/><path d="m375.230469 306.804688c1.542969-.238282 3.160156-.355469 4.84375-.355469 19.207031 0 31.652343 15.566406 31.652343 34.777343 0 19.207032-17.902343 45.453126-37.113281 45.453126-4.320312 0-7.914062-1.324219-10.886719-3.601563h-217.34375c-2.976562 2.277344-6.566406 3.601563-10.890624 3.601563-19.207032 0-37.113282-26.246094-37.113282-45.453126 0-19.210937 12.445313-34.777343 31.652344-34.777343 1.683594 0 3.300781.117187 4.847656.355469" fill="#e8b094"/><path d="m138.363281 368.414062c-3.554687 0-6.769531-2.4375-7.617187-6.046874-1.445313-6.09375-6.375-17.46875-11.757813-17.46875-4.328125 0-7.832031-3.503907-7.832031-7.828126 0-4.324218 3.503906-7.828124 7.832031-7.828124 19.574219 0 26.304688 26.542968 27.007813 29.566406.980468 4.214844-1.640625 8.421875-5.855469 9.402344-.59375.136718-1.191406.203124-1.777344.203124zm0 0" fill="#db9784"/><path d="m371.742188 368.402344c-.59375 0-1.195313-.066406-1.792969-.207032-4.203125-.988281-6.816407-5.179687-5.839844-9.386718.703125-3.023438 7.433594-29.566406 27.007813-29.566406 4.324218 0 7.832031 3.503906 7.832031 7.828124 0 4.324219-3.507813 7.828126-7.832031 7.828126-5.382813 0-10.316407 11.378906-11.761719 17.472656-.851563 3.601562-4.066407 6.03125-7.613281 6.03125zm0 0" fill="#db9784"/><path d="m163.984375 185.945312c68.796875 74.914063 211.246094 78.046876 211.246094 78.046876v67.742187c0 33.1875-13.453125 63.222656-35.199219 84.96875-21.746094 21.757813-51.792969 35.203125-84.980469 35.203125-66.367187 0-120.171875-53.804688-120.171875-120.171875v-67.378906c0-29.972657 10.960938-57.363281 29.105469-78.410157zm0 0" fill="#ffdbcc"/><path d="m175.410156 331.734375v-67.378906c0-20.253907 5.011719-39.328125 13.859375-56.066407-9.132812-6.628906-17.664062-14.042968-25.285156-22.34375-18.144531 21.046876-29.105469 48.441407-29.105469 78.414063v67.378906c0 66.363281 53.804688 120.171875 120.171875 120.171875 6.90625 0 13.679688-.59375 20.269531-1.710937-56.71875-9.636719-99.910156-59.003907-99.910156-118.464844zm0 0" fill="#e8b094"/><path d="m208.421875 325.761719c-4.324219 0-7.828125-3.507813-7.828125-7.832031v-8.699219c0-4.324219 3.503906-7.828125 7.828125-7.828125s7.832031 3.503906 7.832031 7.828125v8.699219c0 4.324218-3.507812 7.832031-7.832031 7.832031zm0 0" fill="#3b454f"/><path d="m301.683594 325.761719c-4.324219 0-7.828125-3.507813-7.828125-7.832031v-8.699219c0-4.324219 3.503906-7.828125 7.828125-7.828125 4.324218 0 7.832031 3.503906 7.832031 7.828125v8.699219c0 4.324218-3.507813 7.832031-7.832031 7.832031zm0 0" fill="#3b454f"/><path d="m255.054688 352.148438c-6.539063 0-13.074219-2.488282-18.050782-7.464844-3.0625-3.058594-3.0625-8.015625-.003906-11.074219s8.019531-3.058594 11.074219 0c3.847656 3.851563 10.109375 3.847656 13.957031 0 3.058594-3.058594 8.015625-3.054687 11.074219 0 3.054687 3.058594 3.054687 8.015625-.003907 11.074219-4.972656 4.976562-11.511718 7.464844-18.046874 7.464844zm0 0" fill="#db9784"/><path d="m212.25 369.257812c0 23.636719 19.164062 42.800782 42.804688 42.800782 23.640624 0 42.804687-19.164063 42.804687-42.800782zm0 0" fill="#fff"/><path d="m222.445312 286.085938c-2 0-4.007812-.765626-5.535156-2.292969-4.679687-4.679688-12.296875-4.679688-16.980468 0-3.058594 3.058593-8.015626 3.054687-11.070313 0-3.058594-3.058594-3.058594-8.015625 0-11.074219 10.789063-10.785156 28.335937-10.785156 39.125 0 3.058594 3.058594 3.058594 8.015625 0 11.074219-1.53125 1.527343-3.535156 2.292969-5.539063 2.292969zm0 0" fill="#e58e13"/><path d="m315.710938 286.085938c-2.003907 0-4.007813-.765626-5.539063-2.292969-2.265625-2.269531-5.28125-3.515625-8.488281-3.515625-3.207032 0-6.222656 1.246094-8.488282 3.515625-3.058593 3.058593-8.015624 3.058593-11.074218 0-3.058594-3.058594-3.058594-8.015625 0-11.074219 5.226562-5.222656 12.171875-8.101562 19.5625-8.101562s14.335937 2.878906 19.5625 8.101562c3.058594 3.058594 3.058594 8.015625 0 11.074219-1.527344 1.527343-3.53125 2.292969-5.535156 2.292969zm0 0" fill="#e58e13"/><path d="m464.160156 270.957031c0 10.121094-8.207031 18.328125-18.328125 18.328125-10.121093 0-18.328125-8.207031-18.328125-18.328125 0-10.121093 8.207032-18.328125 18.328125-18.328125 10.121094 0 18.328125 8.207032 18.328125 18.328125zm0 0" fill="#f7d360"/><path d="m0 97.605469 256-97.605469 256 97.605469-200.179688 76.320312c-35.953124 13.707031-75.6875 13.707031-111.640624 0zm0 0" fill="#3b454f"/><path d="m399.398438 107.800781v99.417969c-68.890626-17.695312-140.226563-22.421875-210.433594-14.195312-25.660156 2.996093-51.175782 7.734374-76.355469 14.195312v-99.417969c25.179687-6.460937 50.695313-11.199219 76.355469-14.207031 70.207031-8.214844 141.542968-3.488281 210.433594 14.207031zm0 0" fill="#545d68"/><path d="m188.964844 93.59375v99.429688c-25.660156 2.996093-51.175782 7.734374-76.355469 14.195312v-99.417969c25.179687-6.460937 50.695313-11.199219 76.355469-14.207031zm0 0" fill="#3b454f"/></svg>